<svg class="diagram-root" style="background: #f5f6f6" xmlns="http://www.w3.org/2000/svg" xmlns:xlink="http://www.w3.org/1999/xlink"><style>.diagram-root { font-family: "Helvetica Neue", sans-serif; font-size: 12px; } .t { overflow: visible; } .t-bg { y: 40; fill: #fff;   } .th { fill: #005aa0;   } .tht { fill: #fff; font-size: 14px;  } .tf { fill: #323c46; overflow: visible; } .tf.pk { fill: #005aa0; font-weight: bold; } .tf.fk { font-weight: bold; } .ty { fill: #adb1b5; font-weight: normal; text-anchor: end; } .r { fill: transparent; stroke: #c3c3c3; stroke-width: 1; } .l { stroke: 1; } .i { fill: #c2c7ce; stroke: #c2c7ce; } .i.ix { fill: #afb3b6; stroke: #000; } .fa { fill: transparent; overflow: visible; } .fa .bg.hover { fill: #f7f7f7; } .c { cy: 12; r: 4; stroke: #d2d2dc; fill: #d2d2dc; } .hr { fill: transparent; stroke: #323c46; stroke-opacity: 0.035; stroke-width: 13; } .dc { stroke: #fa5a3c; fill: #fa5a3c; } .x { stroke: white; stroke-width: 1; } .hl .th { fill: #1b9bff; } .hl .tht {  } .fhl .bg { fill: #e7f4ff; } .fhls .bg {  } .r.hl { stroke: #1b9bff; } .dim { opacity: 0.25; }</style><g class="drawing-wrapper" transform="translate(-30, -23) scale(1,1)"><g class="rs"><path d="M 175.38 233 m -1, 0 a 1,1 0 1,0 2,0 a 1,1 0 1,0 -2,0 M 175.38 233 m -0.5, 0 a 0.5,0.5 0 1,0 1,0 a 0.5,0.5 0 1,0 -1,0  M175.38 233 L175.38 233 187.38 233 M 175.38 239 m -1, 0 a 1,1 0 1,0 2,0 a 1,1 0 1,0 -2,0 M 175.38 239 m -0.5, 0 a 0.5,0.5 0 1,0 1,0 a 0.5,0.5 0 1,0 -1,0  M175.38 239 L175.38 239 182.38 233 175.38 227 M 175.38 227 m -1, 0 a 1,1 0 1,0 2,0 a 1,1 0 1,0 -2,0 M 175.38 227 m -0.5, 0 a 0.5,0.5 0 1,0 1,0 a 0.5,0.5 0 1,0 -1,0  M187.38 233 Q 233.54 233, 279.69 171.5 T 372 110 M 384 110 m -1, 0 a 1,1 0 1,0 2,0 a 1,1 0 1,0 -2,0 M 384 110 m -0.5, 0 a 0.5,0.5 0 1,0 1,0 a 0.5,0.5 0 1,0 -1,0  M384 110 L384 110 372 110 M378 116 L378 116 378 104" id="h1713465006" class="r"></path><path d="M 180.38 446 m -1, 0 a 1,1 0 1,0 2,0 a 1,1 0 1,0 -2,0 M 180.38 446 m -0.5, 0 a 0.5,0.5 0 1,0 1,0 a 0.5,0.5 0 1,0 -1,0  M180.38 446 L180.38 446 192.38 446 M 180.38 452 m -1, 0 a 1,1 0 1,0 2,0 a 1,1 0 1,0 -2,0 M 180.38 452 m -0.5, 0 a 0.5,0.5 0 1,0 1,0 a 0.5,0.5 0 1,0 -1,0  M180.38 452 L180.38 452 187.38 446 180.38 440 M 180.38 440 m -1, 0 a 1,1 0 1,0 2,0 a 1,1 0 1,0 -2,0 M 180.38 440 m -0.5, 0 a 0.5,0.5 0 1,0 1,0 a 0.5,0.5 0 1,0 -1,0  M192.38 446 Q 237.29 446, 282.19 278 T 372 110 M 384 110 m -1, 0 a 1,1 0 1,0 2,0 a 1,1 0 1,0 -2,0 M 384 110 m -0.5, 0 a 0.5,0.5 0 1,0 1,0 a 0.5,0.5 0 1,0 -1,0  M384 110 L384 110 372 110 M378 116 L378 116 378 104" id="h2055689192" class="r"></path><path d="M 180.38 471 m -1, 0 a 1,1 0 1,0 2,0 a 1,1 0 1,0 -2,0 M 180.38 471 m -0.5, 0 a 0.5,0.5 0 1,0 1,0 a 0.5,0.5 0 1,0 -1,0  M180.38 471 L180.38 471 192.38 471 M 180.38 477 m -1, 0 a 1,1 0 1,0 2,0 a 1,1 0 1,0 -2,0 M 180.38 477 m -0.5, 0 a 0.5,0.5 0 1,0 1,0 a 0.5,0.5 0 1,0 -1,0  M180.38 477 L180.38 477 187.38 471 180.38 465 M 180.38 465 m -1, 0 a 1,1 0 1,0 2,0 a 1,1 0 1,0 -2,0 M 180.38 465 m -0.5, 0 a 0.5,0.5 0 1,0 1,0 a 0.5,0.5 0 1,0 -1,0  M192.38 471 Q 237.04 471, 281.69 411 T 371 351 M 383 351 m -1, 0 a 1,1 0 1,0 2,0 a 1,1 0 1,0 -2,0 M 383 351 m -0.5, 0 a 0.5,0.5 0 1,0 1,0 a 0.5,0.5 0 1,0 -1,0  M383 351 L383 351 371 351 M377 357 L377 357 377 345" id="h3970031776" class="r"></path><path d="M 704 442 m -1, 0 a 1,1 0 1,0 2,0 a 1,1 0 1,0 -2,0 M 704 442 m -0.5, 0 a 0.5,0.5 0 1,0 1,0 a 0.5,0.5 0 1,0 -1,0  M704 442 L704 442 692 442 M 704 448 m -1, 0 a 1,1 0 1,0 2,0 a 1,1 0 1,0 -2,0 M 704 448 m -0.5, 0 a 0.5,0.5 0 1,0 1,0 a 0.5,0.5 0 1,0 -1,0  M704 448 L704 448 697 442 704 436 M 704 436 m -1, 0 a 1,1 0 1,0 2,0 a 1,1 0 1,0 -2,0 M 704 436 m -0.5, 0 a 0.5,0.5 0 1,0 1,0 a 0.5,0.5 0 1,0 -1,0  M692 442 Q 654.27 442, 616.53 396.5 T 541.06 351 M 529.06 351 m -1, 0 a 1,1 0 1,0 2,0 a 1,1 0 1,0 -2,0 M 529.06 351 m -0.5, 0 a 0.5,0.5 0 1,0 1,0 a 0.5,0.5 0 1,0 -1,0  M529.06 351 L529.06 351 541.06 351 M535.06 357 L535.06 357 535.06 345" id="h2568804425" class="r"></path><path d="M 704 467 m -1, 0 a 1,1 0 1,0 2,0 a 1,1 0 1,0 -2,0 M 704 467 m -0.5, 0 a 0.5,0.5 0 1,0 1,0 a 0.5,0.5 0 1,0 -1,0  M704 467 L704 467 692 467 M 704 473 m -1, 0 a 1,1 0 1,0 2,0 a 1,1 0 1,0 -2,0 M 704 473 m -0.5, 0 a 0.5,0.5 0 1,0 1,0 a 0.5,0.5 0 1,0 -1,0  M704 473 L704 473 697 467 704 461 M 704 461 m -1, 0 a 1,1 0 1,0 2,0 a 1,1 0 1,0 -2,0 M 704 461 m -0.5, 0 a 0.5,0.5 0 1,0 1,0 a 0.5,0.5 0 1,0 -1,0  M692 467 Q 653.51 467, 615.02 288.5 T 538.04 110 M 526.04 110 m -1, 0 a 1,1 0 1,0 2,0 a 1,1 0 1,0 -2,0 M 526.04 110 m -0.5, 0 a 0.5,0.5 0 1,0 1,0 a 0.5,0.5 0 1,0 -1,0  M526.04 110 L526.04 110 538.04 110 M532.04 116 L532.04 116 532.04 104" id="h2925953049" class="r"></path><path d="M 701 220 m -1, 0 a 1,1 0 1,0 2,0 a 1,1 0 1,0 -2,0 M 701 220 m -0.5, 0 a 0.5,0.5 0 1,0 1,0 a 0.5,0.5 0 1,0 -1,0  M701 220 L701 220 689 220 M 701 226 m -1, 0 a 1,1 0 1,0 2,0 a 1,1 0 1,0 -2,0 M 701 226 m -0.5, 0 a 0.5,0.5 0 1,0 1,0 a 0.5,0.5 0 1,0 -1,0  M701 226 L701 226 694 220 701 214 M 701 214 m -1, 0 a 1,1 0 1,0 2,0 a 1,1 0 1,0 -2,0 M 701 214 m -0.5, 0 a 0.5,0.5 0 1,0 1,0 a 0.5,0.5 0 1,0 -1,0  M689 220 Q 651.26 220, 613.52 165 T 538.04 110 M 526.04 110 m -1, 0 a 1,1 0 1,0 2,0 a 1,1 0 1,0 -2,0 M 526.04 110 m -0.5, 0 a 0.5,0.5 0 1,0 1,0 a 0.5,0.5 0 1,0 -1,0  M526.04 110 L526.04 110 538.04 110 M532.04 116 L532.04 116 532.04 104" id="h2043714667" class="r"></path></g><g class="hrs"></g><g class="ts"><svg width="123.38" height="150" x="52" y="176" id="h3517680912" class="t"><rect height="40" width="123.38" class="th"></rect><text x="13" y="25" class="tht">Titles</text><rect height="110" width="123.38" class="t-bg" y="40"></rect><text x="13" y="61" class="tf fk">emp_no<tspan x="110.38" class="ty">int</tspan></text><text x="13" y="86" class="tf">title<tspan x="110.38" class="ty">varchar</tspan></text><text x="13" y="111" class="tf">from_date<tspan x="110.38" class="ty">date</tspan></text><text x="13" y="136" class="tf">to_date<tspan x="110.38" class="ty">date</tspan></text></svg><svg width="123.38" height="150" x="57" y="389" id="h1068299422" class="t"><rect height="40" width="123.38" class="th"></rect><text x="13" y="25" class="tht">Dep_EMP</text><rect height="110" width="123.38" class="t-bg" y="40"></rect><text x="13" y="61" class="tf fk">emp_no<tspan x="110.38" class="ty">int</tspan></text><text x="13" y="86" class="tf fk">dept_no<tspan x="110.38" class="ty">int</tspan></text><text x="13" y="111" class="tf">from_date<tspan x="110.38" class="ty">date</tspan></text><text x="13" y="136" class="tf">to_date<tspan x="110.38" class="ty">date</tspan></text></svg><svg width="142.04" height="200" x="384" y="53" id="h2421874875" class="t"><rect height="40" width="142.04" class="th"></rect><text x="13" y="25" class="tht">Employee</text><rect height="160" width="142.04" class="t-bg" y="40"></rect><text x="13" y="61" class="tf pk">emp_no<tspan x="129.04" class="ty">int</tspan></text><path d="M7,14A2,2 0 0,1 5,12A2,2 0 0,1 7,10A2,2 0 0,1 9,12A2,2 0 0,1 7,14M12.65,10C11.83,7.67 9.61,6 7, 6A6, 6 0 0, 0 1, 12A6, 6 0 0, 0 7, 18C9.61, 18 11.83, 16.33 12.65, 14H17V18H21V14H23V10H12.65Z" class="i pk" transform="translate(96.36617187499999, 48) scale(0.65)"></path><text x="13" y="86" class="tf">birth_date<tspan x="129.04" class="ty">date</tspan></text><text x="13" y="111" class="tf">first_name<tspan x="129.04" class="ty">varchar</tspan></text><text x="13" y="136" class="tf">last_name<tspan x="129.04" class="ty">varchar</tspan></text><text x="13" y="161" class="tf">gender<tspan x="129.04" class="ty">varchar</tspan></text><text x="13" y="186" class="tf">hire_date<tspan x="129.04" class="ty">date</tspan></text></svg><svg width="146.06" height="100" x="383" y="294" id="h3708248841" class="t"><rect height="40" width="146.06" class="th"></rect><text x="13" y="25" class="tht">Departments</text><rect height="60" width="146.06" class="t-bg" y="40"></rect><text x="13" y="61" class="tf pk">dept_no<tspan x="133.06" class="ty">int</tspan></text><path d="M7,14A2,2 0 0,1 5,12A2,2 0 0,1 7,10A2,2 0 0,1 9,12A2,2 0 0,1 7,14M12.65,10C11.83,7.67 9.61,6 7, 6A6, 6 0 0, 0 1, 12A6, 6 0 0, 0 7, 18C9.61, 18 11.83, 16.33 12.65, 14H17V18H21V14H23V10H12.65Z" class="i pk" transform="translate(100.386171875, 48) scale(0.65)"></path><text x="13" y="86" class="tf">dept_name<tspan x="133.06" class="ty">varchar</tspan></text></svg><svg width="123.38" height="150" x="704" y="385" id="h1782455539" class="t"><rect height="40" width="123.38" class="th"></rect><text x="13" y="25" class="tht">Dep_Mgr</text><rect height="110" width="123.38" class="t-bg" y="40"></rect><text x="13" y="61" class="tf fk">dept_no<tspan x="110.38" class="ty">int</tspan></text><text x="13" y="86" class="tf fk">emp_no<tspan x="110.38" class="ty">int</tspan></text><text x="13" y="111" class="tf">from_date<tspan x="110.38" class="ty">date</tspan></text><text x="13" y="136" class="tf">to_date<tspan x="110.38" class="ty">date</tspan></text></svg><svg width="123.38" height="150" x="701" y="163" id="h1151978425" class="t"><rect height="40" width="123.38" class="th"></rect><text x="13" y="25" class="tht">Salary</text><rect height="110" width="123.38" class="t-bg" y="40"></rect><text x="13" y="61" class="tf fk">emp_no<tspan x="110.38" class="ty">int</tspan></text><text x="13" y="86" class="tf">salary<tspan x="110.38" class="ty">int</tspan></text><text x="13" y="111" class="tf">from_date<tspan x="110.38" class="ty">date</tspan></text><text x="13" y="136" class="tf">to_date<tspan x="110.38" class="ty">date</tspan></text></svg></g></g><text class="qdbd-link" x="10" y="20">www.quickdatabasediagrams.com</text></svg>